<?xml version="1.0" encoding="UTF-8" standalone="no"?>
<svg
   xmlns:osb="http://www.openswatchbook.org/uri/2009/osb"
   xmlns:dc="http://purl.org/dc/elements/1.1/"
   xmlns:cc="http://creativecommons.org/ns#"
   xmlns:rdf="http://www.w3.org/1999/02/22-rdf-syntax-ns#"
   xmlns:svg="http://www.w3.org/2000/svg"
   xmlns="http://www.w3.org/2000/svg"
   xmlns:sodipodi="http://sodipodi.sourceforge.net/DTD/sodipodi-0.dtd"
   xmlns:inkscape="http://www.inkscape.org/namespaces/inkscape"
   sodipodi:docname="Login_mockup.svg"
   id="SVGRoot"
   version="1.1"
   viewBox="0 0 1920 1080"
   height="1080px"
   width="1920px"
   inkscape:version="1.0.1 (c497b03c, 2020-09-10)">
  <defs
     id="defs1273">
    <linearGradient
       id="linearGradient2101"
       osb:paint="solid">
      <stop
         style="stop-color:#000000;stop-opacity:1;"
         offset="0"
         id="stop2099" />
    </linearGradient>
  </defs>
  <sodipodi:namedview
     id="base"
     pagecolor="#ffffff"
     bordercolor="#666666"
     borderopacity="1.0"
     inkscape:pageopacity="0.0"
     inkscape:pageshadow="2"
     inkscape:zoom="0.35"
     inkscape:cx="1015.4526"
     inkscape:cy="629.65741"
     inkscape:document-units="px"
     inkscape:current-layer="layer1"
     inkscape:document-rotation="0"
     showgrid="false"
     inkscape:window-width="1440"
     inkscape:window-height="900"
     inkscape:window-x="0"
     inkscape:window-y="23"
     inkscape:window-maximized="0"
     inkscape:snap-text-baseline="false"
     inkscape:snap-page="true" />
  <metadata
     id="metadata1276">
    <rdf:RDF>
      <cc:Work
         rdf:about="">
        <dc:format>image/svg+xml</dc:format>
        <dc:type
           rdf:resource="http://purl.org/dc/dcmitype/StillImage" />
        <dc:title />
      </cc:Work>
    </rdf:RDF>
  </metadata>
  <g
     inkscape:label="Layer 1"
     inkscape:groupmode="layer"
     id="layer1">
    <rect
       style="fill:#5ce5ff;fill-opacity:0.100806;stroke:none;stroke-width:0;stroke-linecap:round;stroke-linejoin:round;stroke-miterlimit:4;stroke-dasharray:none;stroke-opacity:1;paint-order:normal"
       id="rect2301"
       width="1920"
       height="998.1828"
       x="5.685403e-14"
       y="-1080"
       transform="scale(1,-1)"
       sodipodi:insensitive="true" />
    <path
       id="rect2154"
       style="fill:#e89a40;fill-opacity:1;stroke:none;stroke-width:0;stroke-linecap:round;stroke-linejoin:round;stroke-miterlimit:4;stroke-dasharray:none;stroke-opacity:1;paint-order:normal"
       d="m 1197.7474,680.46289 a 6.2368802,3.5355339 0 0 0 -0.128,0.0723 H 750.53506 a 6.2368802,3.5355339 0 0 0 -0.42034,-0.01 A 6.2368802,3.5355339 0 0 0 743.8785,684 h -0.007 v 29.95703 h 0.1137 a 6.2368802,3.5355339 0 0 0 6.0984,3.45703 v 0.0137 h 0.0241 a 6.2368802,3.5355339 0 0 0 0.007,0.004 6.2368802,3.5355339 0 0 0 0.007,-0.004 h 447.657 v -0.0762 a 6.2368802,3.5355339 0 0 0 6.0985,-3.45703 h 0.017 v -0.01 a 6.2368802,3.5355339 0 0 0 0.089,-0.0508 6.2368802,3.5355339 0 0 0 -0.089,-0.0508 v -29.73437 a 6.2368802,3.5355339 0 0 0 0.089,-0.0508 6.2368802,3.5355339 0 0 0 -0.089,-0.0508 v -0.01 h -0.017 a 6.2368802,3.5355339 0 0 0 -6.1295,-3.47461 z" />
    <g
       inkscape:label="Layer 1"
       id="layer1-5"
       transform="matrix(1.5216979,0,0,1.5216979,819.68959,135.36254)">
      <path
         id="path12"
         style="fill:#e89a40;fill-opacity:1;fill-rule:evenodd;stroke:none;stroke-width:1.16624;stroke-opacity:1"
         d="m 375.58398,103.20703 a 201.1158,201.1158 0 0 0 -200.9414,192.75 h 0.082 v 237.76172 h -0.0684 v 15.37695 h 0.13477 a 23.968243,14.812001 0 0 0 -0.01,0.43555 23.968243,14.812001 0 0 0 23.9668,14.8125 23.968243,14.812001 0 0 0 23.96875,-14.8125 23.968243,14.812001 0 0 0 -0.0606,-1.03906 v -14.77344 h -0.0488 V 295.95703 h 0.15235 a 152.58222,152.58222 0 0 1 152.25195,-144.84765 152.58222,152.58222 0 0 1 0.13476,0 152.58222,152.58222 0 0 1 152.36914,144.54882 24.394227,22.69224 0 0 0 0,0.20313 24.394227,22.69224 0 0 0 24.39454,22.6914 24.394227,22.69224 0 0 0 24.39257,-22.5957 h 0.22266 a 201.1158,201.1158 0 0 0 -200.94141,-192.75 z"
         transform="scale(0.26458333)" />
      <path
         id="rect887"
         style="fill:#e89a40;fill-opacity:1;stroke:none;stroke-width:0.184604;stroke-opacity:1"
         d="m 61.870177,100.50644 v 40.72501 h 8.20811 v -14.81339 a 3.1389298,3.1389298 0 0 1 -0.005,-0.16724 3.1389298,3.1389298 0 0 1 3.13902,-3.13872 3.1389298,3.1389298 0 0 1 3.13781,3.07333 h 0.022 v 15.04633 h 8.10896 v -15.04664 h -0.002 a 11.217884,11.217884 0 0 0 -11.21725,-11.10213 11.217884,11.217884 0 0 0 -0.0313,0 11.217884,11.217884 0 0 0 -3.15288,0.46134 v -15.03789 z" />
      <path
         id="circle954"
         style="fill:#e89a40;fill-opacity:1;stroke:none;stroke-width:0.220352;stroke-opacity:1"
         d="m 120.75072,113.54016 a 11.217884,11.217884 0 0 0 -11.17989,10.83394 h -0.008 v 8.55465 h 0.0111 a 11.217884,11.217884 0 0 0 11.2085,10.76132 11.217884,11.217884 0 0 0 11.20972,-10.79447 h -8.14934 a 3.0895002,3.0895002 0 0 1 -3.06038,2.66622 3.0895002,3.0895002 0 0 1 -3.08448,-2.91814 v -0.3393 -7.37491 -0.34563 a 3.0895002,3.0895002 0 0 1 3.05013,-2.91513 3.0895002,3.0895002 0 0 1 0.0343,0 3.0895002,3.0895002 0 0 1 3.06881,2.73432 h 8.14331 a 11.217884,11.217884 0 0 0 -11.21212,-10.86287 11.217884,11.217884 0 0 0 -0.0313,0 z" />
      <path
         id="rect966"
         style="fill:#e89a40;fill-opacity:1;stroke:none;stroke-width:0.184604;stroke-opacity:1"
         d="m 133.1495,100.50644 v 40.72501 h 8.20811 v -10.07156 l 7.40865,10.02064 h 9.68465 l -13.25066,-17.92229 10.70979,-13.24463 h -9.81482 l -4.73761,5.85888 v -15.36605 z" />
      <path
         id="rect1024"
         style="fill:#25cbea;fill-opacity:1;stroke:none;stroke-width:0.966119;stroke-opacity:1"
         d="M 43.316736,145.39939 V 223.4098 H 160.67908 V 145.39939 H 59.638736 a 7.0958175,4.3689433 0 0 1 10e-4,0.0655 7.0958175,4.3689433 0 0 1 -7.09621,4.36877 7.0958175,4.3689433 0 0 1 -7.095691,-4.36877 7.0958175,4.3689433 0 0 1 0.001,-0.0655 z" />
      <path
         id="path1028"
         style="fill:#e89a40;fill-opacity:1;stroke:none;stroke-width:0.220352;stroke-opacity:1"
         d="m 97.299207,113.54016 a 11.217884,11.217884 0 0 0 -11.18621,11.21785 11.217884,11.217884 0 0 0 0.0325,0.85158 v 6.00834 a 11.217884,11.217884 0 0 0 -0.0325,0.85429 11.217884,11.217884 0 0 0 11.21785,11.21785 11.217884,11.217884 0 0 0 11.215443,-10.98612 h -8.13458 a 3.0895002,3.0895002 0 0 1 -3.080863,2.85787 3.0895002,3.0895002 0 0 1 -3.08117,-2.8648 h -0.01 v -5.73835 h 14.302943 v -2.5707 a 11.217884,11.217884 0 0 0 -11.211823,-10.84781 11.217884,11.217884 0 0 0 -0.0313,0 z m -0.003,8.12855 a 3.0895002,3.0895002 0 0 1 0.0343,0 3.0895002,3.0895002 0 0 1 3.067003,2.71836 h 0.0407 v 0.001 h -6.198603 v -0.001 h 0.0241 a 3.0895002,3.0895002 0 0 1 3.03264,-2.71836 z" />
      <rect
         style="fill:#25cbea;fill-opacity:1;stroke:none;stroke-width:0.269645;stroke-opacity:1"
         id="rect1125"
         width="121.91492"
         height="3.7330639"
         x="40.879162"
         y="223.8705" />
      <rect
         style="fill:#25cbea;fill-opacity:1;stroke:none;stroke-width:0.268361;stroke-opacity:1"
         id="rect1127"
         width="120.73985"
         height="3.7335756"
         x="41.571335"
         y="228.10352" />
      <rect
         style="fill:#25cbea;fill-opacity:1;stroke:none;stroke-width:0.269645;stroke-opacity:1"
         id="rect1129"
         width="121.91492"
         height="3.7330639"
         x="40.879162"
         y="232.33705" />
      <path
         id="path1133"
         style="fill:#ffffff;fill-opacity:1;stroke:none;stroke-width:0.999999;stroke-opacity:1"
         d="m 262.61523,579.27539 a 42.865253,42.865253 0 0 0 -42.86523,42.86523 42.865253,42.865253 0 0 0 0.002,0.29102 h 0.0801 v 69.86524 a 14.897367,14.897367 0 0 0 -0.11523,1.84374 14.897367,14.897367 0 0 0 14.68554,14.89454 v 0.008 h 41.46289 v 68.15039 h 0.14844 a 13.440937,13.440937 0 0 1 -13.39844,12.38867 13.440937,13.440937 0 0 1 -13.34375,-11.83789 h 0.082 v -43.32422 h -29.6211 v 43.32422 h 0.0469 a 42.865259,42.865259 0 0 0 42.83593,41.26172 42.865259,42.865259 0 0 0 42.85157,-41.82813 h -0.24805 v -80.0957 a 14.897367,14.897367 0 0 0 0.29297,-2.94141 14.897367,14.897367 0 0 0 -14.89649,-14.89648 14.897367,14.897367 0 0 0 -2.59179,0.22656 H 249.252 v -57.38476 h -0.0781 a 13.440937,13.440937 0 0 1 13.29101,-13.38477 13.440937,13.440937 0 0 1 0.15039,0 13.440937,13.440937 0 0 1 13.44141,13.43945 13.440937,13.440937 0 0 1 -0.004,0.29102 h 0.0918 v 42.27539 h 29.21289 v -42.27539 h 0.1211 a 42.865253,42.865253 0 0 0 0.002,-0.29102 42.865253,42.865253 0 0 0 -42.86524,-42.86523 z"
         transform="scale(0.26458333)" />
      <path
         id="circle1157"
         style="fill:#ffffff;fill-opacity:1;stroke:none;stroke-width:0.999999;stroke-opacity:1"
         d="m 333.72852,585.82617 v 190.89649 h 0.0254 a 42.86526,42.86526 0 0 0 42.86132,42.2832 42.86526,42.86526 0 0 0 42.86524,-42.86524 42.86526,42.86526 0 0 0 -0.002,-0.39843 h -0.25977 V 586.05078 h -29.35352 v 191.14258 h 0.14844 a 13.440937,13.440937 0 0 1 -13.39844,12.38867 13.440937,13.440937 0 0 1 -13.42773,-12.85937 h 0.16992 V 585.82617 Z"
         transform="scale(0.26458333)" />
      <path
         id="rect1167"
         style="fill:#ffffff;fill-opacity:1;stroke:none;stroke-width:1.62515;stroke-opacity:1"
         d="m 445.32617,585.17969 0.45508,1.18359 v 225.68555 h 29.59961 V 663.37109 l 10.14648,26.39649 -0.20312,0.52539 h 30.03125 0.4043 l -0.20118,-0.52539 10.28125,-26.75 v 149.58984 h 29.32422 V 586.72461 l 0.59375,-1.54492 h -30.03125 l -25.18359,65.52148 -25.18555,-65.52148 z"
         transform="scale(0.26458333)" />
    </g>
    <text
       xml:space="preserve"
       style="font-style:normal;font-weight:normal;font-size:24px;line-height:1.25;font-family:sans-serif;fill:#686868;fill-opacity:0.657258;stroke:none"
       x="760"
       y="597.71429"
       id="text2083"><tspan
         sodipodi:role="line"
         id="tspan2081"
         x="760"
         y="597.71429"
         style="font-size:24px;fill:#686868;fill-opacity:0.657258">Email Address*</tspan></text>
    <text
       xml:space="preserve"
       style="font-style:normal;font-weight:normal;font-size:24px;line-height:1.25;font-family:sans-serif;fill:#676767;fill-opacity:0.658824;stroke:none"
       x="760.57141"
       y="653.71429"
       id="text2087"><tspan
         sodipodi:role="line"
         id="tspan2085"
         x="760.57141"
         y="653.71429"
         style="font-size:24px;fill:#676767;fill-opacity:0.658824">Password*</tspan></text>
    <text
       xml:space="preserve"
       style="font-style:normal;font-weight:normal;font-size:40px;line-height:1.25;font-family:sans-serif;fill:#000000;fill-opacity:1;stroke:none"
       x="942.85712"
       y="574.28571"
       id="text2091"><tspan
         sodipodi:role="line"
         id="tspan2089"
         x="942.85712"
         y="574.28571" /></text>
    <rect
       style="fill:none;fill-opacity:0.282258;stroke:none;stroke-width:0;stroke-linecap:round;stroke-linejoin:round;stroke-miterlimit:4;stroke-dasharray:none;stroke-opacity:1;paint-order:normal"
       id="rect2097"
       width="68.527992"
       height="37.32328"
       x="779.03503"
       y="472.20499" />
    <text
       xml:space="preserve"
       style="font-style:normal;font-weight:normal;font-size:21.3333px;line-height:1.25;font-family:sans-serif;fill:#ffffff;fill-opacity:1;stroke:none"
       x="934.60938"
       y="707.34021"
       id="text2152"><tspan
         sodipodi:role="line"
         id="tspan2150"
         x="934.60938"
         y="707.34021"
         style="font-size:21.3333px;fill:#ffffff;fill-opacity:1">SIGN IN</tspan></text>
    <text
       xml:space="preserve"
       style="font-style:normal;font-weight:normal;font-size:40px;line-height:1.25;font-family:sans-serif;fill:#000000;fill-opacity:1;stroke:none"
       x="809.63727"
       y="420.22345"
       id="text2191"><tspan
         sodipodi:role="line"
         id="tspan2189"
         x="809.63727"
         y="420.22345" /></text>
    <path
       id="path2210"
       style="fill:#474242;fill-opacity:0.939516"
       d="m 752.64648,570.38281 a 7.0710678,7.0710678 0 0 0 -7.07031,7.07227 7.0710678,7.0710678 0 0 0 0.084,1.08594 v 8.10546 5.73633 8.10547 a 7.0710678,7.0710678 0 0 0 -0.084,1.08594 7.0710678,7.0710678 0 0 0 7.07031,7.07226 H 783.44922 910 h 129.5762 8.7929 117.7579 30.8027 a 7.0710678,7.0710678 0 0 0 7.0703,-7.07226 7.0710678,7.0710678 0 0 0 -0.084,-1.08594 v -8.10547 -5.73633 -8.10546 a 7.0710678,7.0710678 0 0 0 0.084,-1.08594 7.0710678,7.0710678 0 0 0 -7.0703,-7.07227 H 1166.127 1041.1816 1039.5762 910 783.44922 Z m 0,1.25 h 30.80274 v 0.13477 H 910 h 129.5762 1.6054 124.9454 v -0.13477 h 30.8027 v 0.0137 a 5.8083773,5.8083773 0 0 1 5.8027,5.80079 h -0.07 v 4.93554 4.26367 5.73633 4.26367 4.93555 h 0.07 a 5.8083773,5.8083773 0 0 1 -5.8027,5.80078 v 0.0137 h -30.8027 v -0.13476 H 1048.3691 1039.5762 910 783.44922 v 0.13476 h -30.80274 v -0.0137 a 5.8083773,5.8083773 0 0 1 -0.004,0 5.8083773,5.8083773 0 0 1 -5.80274,-5.80078 h 0.0703 v -4.93555 -4.26367 -5.73633 -4.26367 -4.93554 h -0.0703 a 5.8083773,5.8083773 0 0 1 5.80274,-5.80079 5.8083773,5.8083773 0 0 1 0.004,0 z" />
    <path
       id="path2212"
       style="fill:#474242;fill-opacity:0.939516"
       d="m 752.64648,626.38281 a 7.0710678,7.0710678 0 0 0 -7.07031,7.07227 7.0710678,7.0710678 0 0 0 0.084,1.08594 v 8.10546 5.73633 8.10547 a 7.0710678,7.0710678 0 0 0 -0.084,1.08594 7.0710678,7.0710678 0 0 0 7.07031,7.07226 h 30.80274 110.12305 162.00393 6.1718 103.9512 30.8028 a 7.0710678,7.0710678 0 0 0 7.0703,-7.07226 7.0710678,7.0710678 0 0 0 -0.084,-1.08594 v -8.10547 -5.73633 -8.10546 a 7.0710678,7.0710678 0 0 0 0.084,-1.08594 7.0710678,7.0710678 0 0 0 -7.0703,-7.07227 h -30.8028 -106.0586 -4.0644 -162.00393 -110.12305 z m 0,1.25 h 30.80274 v 0.13477 h 110.12305 162.00393 4.0644 106.0586 v -0.13477 h 30.8028 v 0.0137 a 5.8083773,5.8083773 0 0 1 5.8027,5.80079 h -0.07 v 4.93554 4.26367 5.73633 4.26367 4.93555 h 0.07 a 5.8083773,5.8083773 0 0 1 -5.8027,5.80078 v 0.0137 h -30.8028 v -0.13476 H 1061.748 1055.5762 893.57227 783.44922 v 0.13476 h -30.80274 v -0.0137 a 5.8083773,5.8083773 0 0 1 -0.004,0 5.8083773,5.8083773 0 0 1 -5.80274,-5.80078 h 0.0703 v -4.93555 -4.26367 -5.73633 -4.26367 -4.93554 h -0.0703 a 5.8083773,5.8083773 0 0 1 5.80274,-5.80079 5.8083773,5.8083773 0 0 1 0.004,0 z" />
    <text
       xml:space="preserve"
       style="font-style:normal;font-weight:normal;font-size:18.6667px;line-height:1.25;font-family:sans-serif;fill:#25cbea;fill-opacity:1;stroke:none"
       x="743.42859"
       y="748.28571"
       id="text2216"><tspan
         sodipodi:role="line"
         id="tspan2214"
         x="743.42859"
         y="748.28571"
         style="font-size:18.6667px;fill:#25cbea;fill-opacity:1">forgot password?</tspan></text>
    <text
       xml:space="preserve"
       style="font-style:normal;font-weight:normal;font-size:18.6667px;line-height:1.25;font-family:sans-serif;text-align:center;text-anchor:middle;fill:#25cbea;fill-opacity:1;stroke:none"
       x="1096.6643"
       y="747.71429"
       id="text2220"><tspan
         sodipodi:role="line"
         id="tspan2218"
         x="1096.6643"
         y="747.71429"
         style="font-size:18.6667px;text-align:center;text-anchor:middle;fill:#25cbea;fill-opacity:1">don't have an account? </tspan><tspan
         sodipodi:role="line"
         x="1096.6643"
         y="771.04767"
         style="font-size:18.6667px;text-align:center;text-anchor:middle;fill:#25cbea;fill-opacity:1"
         id="tspan2236">Sign Up</tspan></text>
    <rect
       style="fill:#25cbea;fill-opacity:1;stroke:#25cbea;stroke-width:0;stroke-linecap:round;stroke-linejoin:round;stroke-miterlimit:4;stroke-dasharray:none;stroke-opacity:1;paint-order:normal"
       id="rect2263"
       width="1920"
       height="81.817238"
       x="5.685403e-14"
       y="0" />
    <text
       xml:space="preserve"
       style="font-style:normal;font-weight:normal;font-size:24px;line-height:1.25;font-family:sans-serif;fill:#ffffff;fill-opacity:1;stroke:none"
       x="228"
       y="49.142822"
       id="text2267"><tspan
         sodipodi:role="line"
         id="tspan2265"
         x="228"
         y="49.142822"
         style="font-size:24px;fill:#ffffff;fill-opacity:1">About us</tspan></text>
    <text
       xml:space="preserve"
       style="font-style:normal;font-weight:normal;font-size:24px;line-height:1.25;font-family:sans-serif;fill:#fdf8f8;fill-opacity:1;stroke:none;stroke-opacity:1"
       x="424.57144"
       y="49.428589"
       id="text2271"><tspan
         sodipodi:role="line"
         id="tspan2269"
         x="424.57144"
         y="49.428589"
         style="font-size:24px;fill:#fdf8f8;fill-opacity:1;stroke:none;stroke-opacity:1">Contact Us</tspan></text>
    <text
       xml:space="preserve"
       style="font-style:normal;font-weight:normal;font-size:24px;line-height:1.25;font-family:sans-serif;fill:#fdf8f8;fill-opacity:1;stroke:none"
       x="64"
       y="49.142822"
       id="text2279"><tspan
         sodipodi:role="line"
         id="tspan2277"
         x="64"
         y="49.142822"
         style="font-size:24px;fill:#fdf8f8;fill-opacity:1">Log In</tspan></text>
    <rect
       style="fill:#fdf8f8;fill-opacity:1;stroke:none;stroke-width:0;stroke-linecap:round;stroke-linejoin:round;stroke-miterlimit:4;stroke-dasharray:none;stroke-opacity:1;paint-order:normal"
       id="rect2281"
       width="175.76653"
       height="4.0406103"
       x="17.172592"
       y="65.700523" />
    <text
       xml:space="preserve"
       style="font-style:normal;font-weight:normal;font-size:24px;line-height:1.25;font-family:sans-serif;fill:#e89a40;fill-opacity:1;stroke:none"
       x="926.57141"
       y="535.71429"
       id="text2307"><tspan
         sodipodi:role="line"
         id="tspan2305"
         x="926.57141"
         y="535.71429"
         style="font-style:normal;font-variant:normal;font-weight:bold;font-stretch:normal;font-size:24px;font-family:sans-serif;-inkscape-font-specification:'sans-serif Bold';fill:#e89a40;fill-opacity:1">Sign In</tspan></text>
  </g>
</svg>
