<?xml version="1.0" encoding="UTF-8" standalone="no"?>
<svg
   xmlns:dc="http://purl.org/dc/elements/1.1/"
   xmlns:cc="http://creativecommons.org/ns#"
   xmlns:rdf="http://www.w3.org/1999/02/22-rdf-syntax-ns#"
   xmlns:svg="http://www.w3.org/2000/svg"
   xmlns="http://www.w3.org/2000/svg"
   xmlns:xlink="http://www.w3.org/1999/xlink"
   xmlns:sodipodi="http://sodipodi.sourceforge.net/DTD/sodipodi-0.dtd"
   xmlns:inkscape="http://www.inkscape.org/namespaces/inkscape"
   width="1920px"
   height="1080px"
   viewBox="0 0 1920 1080"
   version="1.1"
   id="SVGRoot"
   sodipodi:docname="My_Account_Mockup.svg"
   inkscape:version="1.0.1 (c497b03c, 2020-09-10)">
  <defs
     id="defs885">
    <linearGradient
       inkscape:collect="always"
       id="linearGradient912">
      <stop
         style="stop-color:#25cbea;stop-opacity:1;"
         offset="0"
         id="stop908" />
      <stop
         style="stop-color:#90edff;stop-opacity:0"
         offset="1"
         id="stop910" />
    </linearGradient>
    <inkscape:perspective
       sodipodi:type="inkscape:persp3d"
       inkscape:vp_x="0 : -88.500084 : 1"
       inkscape:vp_y="0 : 999.99991 : 0"
       inkscape:vp_z="210 : -88.500084 : 1"
       inkscape:persp3d-origin="105 : -137.99998 : 1"
       id="perspective1876" />
    <linearGradient
       inkscape:collect="always"
       xlink:href="#linearGradient912"
       id="linearGradient914"
       x1="988.12927"
       y1="337.12329"
       x2="992.31525"
       y2="339.14359"
       gradientUnits="userSpaceOnUse"
       gradientTransform="translate(0,36)" />
  </defs>
  <sodipodi:namedview
     id="base"
     pagecolor="#ffffff"
     bordercolor="#666666"
     borderopacity="1.0"
     inkscape:pageopacity="0.0"
     inkscape:pageshadow="2"
     inkscape:zoom="0.98994949"
     inkscape:cx="949.11647"
     inkscape:cy="583.51703"
     inkscape:document-units="px"
     inkscape:current-layer="layer1"
     inkscape:document-rotation="0"
     showgrid="false"
     inkscape:window-width="2560"
     inkscape:window-height="1440"
     inkscape:window-x="0"
     inkscape:window-y="0"
     inkscape:window-maximized="0"
     inkscape:snap-page="false" />
  <metadata
     id="metadata888">
    <rdf:RDF>
      <cc:Work
         rdf:about="">
        <dc:format>image/svg+xml</dc:format>
        <dc:type
           rdf:resource="http://purl.org/dc/dcmitype/StillImage" />
        <dc:title></dc:title>
      </cc:Work>
    </rdf:RDF>
  </metadata>
  <g
     inkscape:label="Layer 1"
     inkscape:groupmode="layer"
     id="layer1">
    <rect
       style="fill:#25cbea;fill-opacity:1;stroke-width:0;stroke-linecap:round;stroke-linejoin:round"
       id="rect1550"
       width="1920"
       height="81.857002"
       x="0"
       y="0" />
    <g
       inkscape:label="Layer 1"
       id="layer1-2"
       transform="matrix(1.8306346,0,0,1.8306346,-24.765743,-11.74416)"
       style="fill:#fffdfd;fill-opacity:1">
      <path
         id="rect887"
         style="fill:#fffdfd;fill-opacity:1;stroke:none;stroke-width:0.144273;stroke-opacity:1"
         d="m 41.754279,13.103355 v 31.827692 h 6.414863 V 33.353983 a 2.4531599,2.4531599 0 0 1 -0.0039,-0.1307 2.4531599,2.4531599 0 0 1 2.45323,-2.452997 2.4531599,2.4531599 0 0 1 2.452285,2.401887 h 0.01719 v 11.759114 h 6.337375 V 33.171933 h -0.0016 a 8.7670845,8.7670845 0 0 0 -8.766589,-8.676614 8.7670845,8.7670845 0 0 0 -0.02446,0 8.7670845,8.7670845 0 0 0 -2.464063,0.36055 V 13.103355 Z" />
      <path
         id="circle954"
         style="fill:#fffdfd;fill-opacity:1;stroke:none;stroke-width:0.172211;stroke-opacity:1"
         d="m 87.770982,23.289559 a 8.7670845,8.7670845 0 0 0 -8.737358,8.467017 h -0.0063 v 6.685684 h 0.0087 a 8.7670845,8.7670845 0 0 0 8.759718,8.410267 8.7670845,8.7670845 0 0 0 8.760649,-8.436167 h -6.368894 a 2.4145293,2.4145293 0 0 1 -2.391755,2.08372 2.4145293,2.4145293 0 0 1 -2.410598,-2.28061 v -0.26517 -5.763684 -0.27012 a 2.4145293,2.4145293 0 0 1 2.383748,-2.27826 2.4145293,2.4145293 0 0 1 0.0268,0 2.4145293,2.4145293 0 0 1 2.398345,2.13695 h 6.364174 a 8.7670845,8.7670845 0 0 0 -8.762519,-8.489627 8.7670845,8.7670845 0 0 0 -0.0245,0 z" />
      <path
         id="rect966"
         style="fill:#fffdfd;fill-opacity:1;stroke:none;stroke-width:0.144273;stroke-opacity:1"
         d="m 97.460905,13.103355 v 31.827692 h 6.414845 v -7.871194 l 5.79006,7.831404 h 7.56882 l -10.35576,-14.006761 8.37,-10.351034 h -7.67055 l -3.70257,4.578877 V 13.103355 Z" />
      <path
         id="path1028"
         style="fill:#fffdfd;fill-opacity:1;stroke:none;stroke-width:0.172211;stroke-opacity:1"
         d="m 69.443039,23.289559 a 8.7670845,8.7670845 0 0 0 -8.74233,8.767057 8.7670845,8.7670845 0 0 0 0.0254,0.665527 v 4.69568 a 8.7670845,8.7670845 0 0 0 -0.0254,0.667647 8.7670845,8.7670845 0 0 0 8.767058,8.767057 8.7670845,8.7670845 0 0 0 8.765151,-8.585947 h -6.357372 a 2.4145293,2.4145293 0 0 1 -2.407779,2.2335 2.4145293,2.4145293 0 0 1 -2.408019,-2.23892 h -0.0078 v -4.484677 h 11.178117 v -2.009067 a 8.7670845,8.7670845 0 0 0 -8.762321,-8.477857 8.7670845,8.7670845 0 0 0 -0.02446,0 z m -0.0023,6.352677 a 2.4145293,2.4145293 0 0 1 0.02681,0 2.4145293,2.4145293 0 0 1 2.396947,2.12448 h 0.03181 v 7.8e-4 h -4.844378 v -7.8e-4 h 0.01883 a 2.4145293,2.4145293 0 0 1 2.370092,-2.12448 z" />
      <path
         id="path1133"
         style="fill:#fffdfd;fill-opacity:1;stroke:none;stroke-width:0.172495;stroke-opacity:1"
         d="m 129.82006,12.341165 a 8.8636399,6.1680995 0 0 0 -8.86364,6.168087 8.8636399,6.1680995 0 0 0 4.1e-4,0.0419 h 0.0166 v 10.053264 a 3.0804648,2.1436581 0 0 0 -0.0238,0.2653 3.0804648,2.1436581 0 0 0 3.03666,2.14325 v 0.001 h 8.57366 v 9.806494 h 0.0307 a 2.7793054,1.9340849 0 0 1 -2.77052,1.78267 2.7793054,1.9340849 0 0 1 -2.75921,-1.70341 h 0.017 v -6.234107 h -6.12503 v 6.234137 h 0.01 a 8.8636414,6.1681005 0 0 0 8.85759,5.937357 8.8636414,6.1681005 0 0 0 8.86081,-6.018857 h -0.0513 V 29.293266 a 3.0804648,2.1436581 0 0 0 0.0606,-0.42326 3.0804648,2.1436581 0 0 0 -3.08029,-2.143527 3.0804648,2.1436581 0 0 0 -0.53592,0.0326 h -8.01717 v -8.257357 h -0.0162 a 2.7793054,1.9340849 0 0 1 2.7483,-1.92601 2.7793054,1.9340849 0 0 1 0.0311,0 2.7793054,1.9340849 0 0 1 2.77941,1.93388 2.7793054,1.9340849 0 0 1 -7.8e-4,0.0419 h 0.019 v 6.083217 h 6.04062 v -6.083217 h 0.025 a 8.8636399,6.1680995 0 0 0 4e-4,-0.0419 8.8636399,6.1680995 0 0 0 -8.86361,-6.168087 z" />
      <path
         id="circle1157"
         style="fill:#fffdfd;fill-opacity:1;stroke:none;stroke-width:0.172495;stroke-opacity:1"
         d="M 142.93731,13.283785 V 40.75284 h 0.005 a 8.8636414,6.1681005 0 0 0 8.86283,6.084347 8.8636414,6.1681005 0 0 0 8.86361,-6.168097 8.8636414,6.1681005 0 0 0 -4e-4,-0.0573 h -0.0537 V 13.316145 h -6.06968 V 40.82062 h 0.0307 a 2.7793054,1.9340849 0 0 1 -2.77051,1.78267 2.7793054,1.9340849 0 0 1 -2.77658,-1.85041 h 0.0352 V 13.283825 Z" />
      <path
         id="rect1167"
         style="fill:#fffdfd;fill-opacity:1;stroke:none;stroke-width:0.28033;stroke-opacity:1"
         d="m 164.42584,13.190755 0.0941,0.17032 v 32.475022 h 6.12058 V 24.442119 l 2.09808,3.798317 -0.042,0.0756 h 6.20984 0.0836 l -0.0416,-0.0756 2.12595,-3.849197 v 21.525238 h 6.06364 V 13.413065 l 0.12277,-0.22231 h -6.20984 l -5.20743,9.428214 -5.20785,-9.428214 z" />
      <path
         id="path1878"
         style="fill:#fffdfd;fill-opacity:1;stroke:none;stroke-width:0.282904;stroke-opacity:1"
         d="m 28.558463,10.036338 a 8.9489001,10.225126 0 0 0 -8.867675,10.076164 h 0.0072 V 31.225536 H 18.991089 V 46.596487 H 38.984184 V 31.225536 H 25.900744 V 20.112502 h 0.0016 a 2.7398914,3.1306346 0 0 1 2.729032,-2.98178 2.7398914,3.1306346 0 0 1 0.0078,0 2.7398914,3.1306346 0 0 1 2.731617,2.88607 v 4.649037 a 3.1129007,3.5118825 0 0 0 -0.02377,0.43543 3.1129007,3.5118825 0 0 0 3.112989,3.511737 3.1129007,3.5118825 0 0 0 3.112471,-3.511737 3.1129007,3.5118825 0 0 0 -10e-4,-0.0863 h 0.0041 v -4.902497 h 0.01137 a 8.9489001,10.225126 0 0 0 -8.947774,-10.076164 8.9489001,10.225126 0 0 0 -0.08062,0 z" />
    </g>
    <text
       xml:space="preserve"
       style="font-style:normal;font-weight:normal;font-size:24px;line-height:1.25;font-family:sans-serif;fill:#fffdfd;fill-opacity:1;stroke:none"
       x="367.81357"
       y="49.680119"
       id="text1562"><tspan
         sodipodi:role="line"
         id="tspan1560"
         x="367.81357"
         y="49.680119"
         style="font-size:24px;fill:#fffdfd;fill-opacity:1">My Account</tspan></text>
    <text
       xml:space="preserve"
       style="font-style:normal;font-weight:normal;font-size:24px;line-height:1.25;font-family:sans-serif;fill:#fffdfd;fill-opacity:1;stroke:none"
       x="573.20593"
       y="52.859249"
       id="text1566"><tspan
         sodipodi:role="line"
         id="tspan1564"
         x="573.20593"
         y="52.859249"
         style="font-size:24px;fill:#fffdfd;fill-opacity:1">About Us</tspan></text>
    <text
       xml:space="preserve"
       style="font-style:normal;font-weight:normal;font-size:24px;line-height:1.25;font-family:sans-serif;fill:#fffdfd;fill-opacity:1;stroke:none"
       x="773.03259"
       y="53.195694"
       id="text1570"><tspan
         sodipodi:role="line"
         id="tspan1568"
         x="773.03259"
         y="53.195694"
         style="font-size:24px;fill:#fffdfd;fill-opacity:1">Contact Us</tspan></text>
    <rect
       style="fill:#fffdfd;fill-opacity:1;stroke-width:0;stroke-linecap:round;stroke-linejoin:round"
       id="rect1572"
       width="157.58379"
       height="4.0406103"
       x="358.68536"
       y="59.598999" />
    <text
       xml:space="preserve"
       style="font-style:normal;font-weight:normal;font-size:24px;line-height:1.25;font-family:sans-serif;fill:#000000;fill-opacity:0.501961;stroke:none"
       x="823.82397"
       y="258.96671"
       id="text1578"><tspan
         sodipodi:role="line"
         id="tspan1576"
         x="823.82397"
         y="258.96671"
         style="font-size:24px;fill:#000000;fill-opacity:0.501961">First_Name Last_Name</tspan></text>
    <text
       xml:space="preserve"
       style="font-style:normal;font-weight:normal;font-size:24px;line-height:1.25;font-family:sans-serif;fill:#000000;fill-opacity:0.501961;stroke:none"
       x="340.74628"
       y="380.44171"
       id="text1582"><tspan
         sodipodi:role="line"
         id="tspan1580"
         x="340.74628"
         y="380.44171"
         style="font-size:24px;fill:#000000;fill-opacity:0.501961">Birth Date: 01/01/2001</tspan></text>
    <rect
       style="fill:url(#linearGradient914);fill-opacity:1;stroke:#000000;stroke-width:1.01472;stroke-linecap:round;stroke-linejoin:round;stroke-miterlimit:4;stroke-dasharray:none;stroke-opacity:1"
       id="rect1596"
       width="687.04449"
       height="37.447632"
       x="635.08325"
       y="351.36902"
       ry="18.723816" />
    <rect
       style="fill:none;fill-opacity:1;stroke:#000000;stroke-width:0.666183;stroke-linecap:round;stroke-linejoin:round;stroke-miterlimit:4;stroke-dasharray:none;stroke-opacity:0.5"
       id="rect1600"
       width="294.59055"
       height="37.643112"
       x="826.61462"
       y="653.2713"
       ry="3.0185513" />
    <rect
       style="fill:#000000;fill-opacity:0.501961;stroke:#000000;stroke-width:0;stroke-linecap:round;stroke-linejoin:round;stroke-miterlimit:4;stroke-dasharray:none;stroke-opacity:0.5"
       id="rect1602"
       width="747.14288"
       height="1.9695431"
       x="611.42859"
       y="413"
       ry="0" />
    <text
       xml:space="preserve"
       style="font-style:normal;font-weight:normal;font-size:29.3333px;line-height:1.25;font-family:sans-serif;fill:#e89a40;fill-opacity:1;stroke:none"
       x="877.39886"
       y="205.08194"
       id="text1606"><tspan
         sodipodi:role="line"
         id="tspan1604"
         x="877.39886"
         y="205.08194"
         style="font-style:normal;font-variant:normal;font-weight:bold;font-stretch:normal;font-size:29.3333px;font-family:sans-serif;-inkscape-font-specification:'sans-serif Bold';fill:#e89a40;fill-opacity:1">My Acount</tspan></text>
    <rect
       style="fill:#838383;fill-opacity:0.41129;stroke:none;stroke-width:0.731553;stroke-linecap:round;stroke-linejoin:round;stroke-miterlimit:4;stroke-dasharray:none;stroke-opacity:0.5"
       id="rect1608"
       width="357.09583"
       height="37.447632"
       x="1344.6157"
       y="350.37915"
       ry="3.002876" />
    <text
       xml:space="preserve"
       style="font-style:normal;font-weight:normal;font-size:24px;line-height:1.25;font-family:sans-serif;fill:#ffffff;fill-opacity:0;stroke:none"
       x="1353.4875"
       y="378.00012"
       id="text1614"><tspan
         sodipodi:role="line"
         x="1353.4875"
         y="378.00012"
         id="tspan1612"
         style="font-size:24px;fill:#ffffff;fill-opacity:1">Generate Verification Token</tspan></text>
    <text
       xml:space="preserve"
       style="font-style:normal;font-weight:normal;font-size:24px;line-height:1.25;font-family:sans-serif;fill:#000000;fill-opacity:0.501961;stroke:none"
       x="801.45184"
       y="378.42142"
       id="text898"><tspan
         sodipodi:role="line"
         id="tspan896"
         x="801.45184"
         y="378.42142"
         style="font-size:24px;fill:#000000;fill-opacity:0.501961">Performing Background Check</tspan></text>
    <text
       xml:space="preserve"
       style="font-style:normal;font-weight:normal;font-size:24px;line-height:1.25;font-family:sans-serif;fill:#000000;fill-opacity:0.501961;stroke:none"
       x="340.74628"
       y="500.44171"
       id="text918"><tspan
         sodipodi:role="line"
         id="tspan916"
         x="340.74628"
         y="500.44171"
         style="font-size:24px;fill:#000000;fill-opacity:0.501961">Birth Date: 01/01/2001</tspan></text>
    <rect
       style="fill:#25cbea;fill-opacity:1;stroke:#000000;stroke-width:1.01472;stroke-linecap:round;stroke-linejoin:round;stroke-miterlimit:4;stroke-dasharray:none;stroke-opacity:1"
       id="rect920"
       width="687.04449"
       height="37.447632"
       x="635.08325"
       y="471.36902"
       ry="18.723816" />
    <rect
       style="fill:#000000;fill-opacity:0.501961;stroke:#000000;stroke-width:0;stroke-linecap:round;stroke-linejoin:round;stroke-miterlimit:4;stroke-dasharray:none;stroke-opacity:0.5"
       id="rect922"
       width="747.14288"
       height="1.9695431"
       x="611.42859"
       y="533"
       ry="0" />
    <rect
       style="fill:#e89a40;fill-opacity:1;stroke:none;stroke-width:0.731553;stroke-linecap:round;stroke-linejoin:round;stroke-miterlimit:4;stroke-dasharray:none;stroke-opacity:0.5"
       id="rect924"
       width="357.09583"
       height="37.447632"
       x="1344.6157"
       y="470.37915"
       ry="3.002876" />
    <text
       xml:space="preserve"
       style="font-style:normal;font-weight:normal;font-size:24px;line-height:1.25;font-family:sans-serif;fill:#ffffff;fill-opacity:0;stroke:none"
       x="1353.4875"
       y="498.00012"
       id="text928"><tspan
         sodipodi:role="line"
         x="1353.4875"
         y="498.00012"
         id="tspan926"
         style="font-size:24px;fill:#ffffff;fill-opacity:1">Generate Verification Token</tspan></text>
    <text
       xml:space="preserve"
       style="font-style:normal;font-weight:normal;font-size:24px;line-height:1.25;font-family:sans-serif;fill:#ffffff;fill-opacity:1;stroke:none"
       x="918.62952"
       y="499.43158"
       id="text932"><tspan
         sodipodi:role="line"
         id="tspan930"
         x="918.62952"
         y="499.43158"
         style="font-size:24px;fill:#ffffff;fill-opacity:1">Verified !</tspan></text>
    <text
       xml:space="preserve"
       style="font-style:normal;font-weight:normal;font-size:24px;line-height:1.25;font-family:sans-serif;fill:#000000;fill-opacity:0.501961;stroke:none"
       x="340.74628"
       y="608.44171"
       id="text938"><tspan
         sodipodi:role="line"
         id="tspan936"
         x="340.74628"
         y="608.44171"
         style="font-size:24px;fill:#000000;fill-opacity:0.501961">Birth Date: 01/01/2001</tspan></text>
    <rect
       style="fill:#25cbea;fill-opacity:1;stroke:#000000;stroke-width:1.01472;stroke-linecap:round;stroke-linejoin:round;stroke-miterlimit:4;stroke-dasharray:none;stroke-opacity:1"
       id="rect940"
       width="687.04449"
       height="37.447632"
       x="635.08325"
       y="579.36902"
       ry="18.723816" />
    <rect
       style="fill:#000000;fill-opacity:0.501961;stroke:#000000;stroke-width:0;stroke-linecap:round;stroke-linejoin:round;stroke-miterlimit:4;stroke-dasharray:none;stroke-opacity:0.5"
       id="rect942"
       width="747.14288"
       height="1.9695431"
       x="611.42859"
       y="711"
       ry="0" />
    <rect
       style="fill:#de492d;fill-opacity:1;stroke:none;stroke-width:0.731553;stroke-linecap:round;stroke-linejoin:round;stroke-miterlimit:4;stroke-dasharray:none;stroke-opacity:0.5"
       id="rect944"
       width="357.09583"
       height="37.447632"
       x="1344.6157"
       y="578.37915"
       ry="3.002876" />
    <text
       xml:space="preserve"
       style="font-style:normal;font-weight:normal;font-size:24px;line-height:1.25;font-family:sans-serif;fill:#ffffff;fill-opacity:0;stroke:none"
       x="1439.5485"
       y="606.00012"
       id="text948"><tspan
         sodipodi:role="line"
         x="1439.5485"
         y="606.00012"
         id="tspan946"
         style="font-size:24px;fill:#ffffff;fill-opacity:1">Cancel Token</tspan></text>
    <text
       xml:space="preserve"
       style="font-style:normal;font-weight:normal;font-size:40px;line-height:1.25;font-family:sans-serif;fill:#000000;fill-opacity:0.50196081;stroke:none;"
       x="850.54846"
       y="686.53827"
       id="text958"><tspan
         sodipodi:role="line"
         id="tspan956"
         x="850.54846"
         y="686.53827">X984 - cAc4</tspan></text>
    <text
       xml:space="preserve"
       style="font-style:normal;font-weight:normal;font-size:24px;line-height:1.25;font-family:sans-serif;fill:#ffffff;fill-opacity:1;stroke:none"
       x="918.62952"
       y="605.43158"
       id="text962"><tspan
         sodipodi:role="line"
         id="tspan960"
         x="918.62952"
         y="605.43158"
         style="font-size:24px;fill:#ffffff;fill-opacity:1">Verified !</tspan></text>
    <text
       xml:space="preserve"
       style="font-style:normal;font-weight:normal;font-size:24px;line-height:1.25;font-family:sans-serif;fill:#000000;fill-opacity:0.50196081;stroke:none;"
       x="601.04077"
       y="681.85297"
       id="text966"><tspan
         sodipodi:role="line"
         id="tspan964"
         x="601.04077"
         y="681.85297"
         style="font-size:24px;fill:#000000;fill-opacity:0.50196081;">Verification Token</tspan></text>
    <rect
       style="fill:#e89a40;fill-opacity:1;stroke:none;stroke-width:0.598369;stroke-linecap:round;stroke-linejoin:round;stroke-miterlimit:4;stroke-dasharray:none;stroke-opacity:0.5"
       id="rect968"
       width="238.90797"
       height="37.447632"
       x="1132.6157"
       y="654.37915"
       ry="3.002876" />
    <text
       xml:space="preserve"
       style="font-style:normal;font-weight:normal;font-size:24px;line-height:1.25;font-family:sans-serif;fill:#ffffff;fill-opacity:0;stroke:none"
       x="1141.4875"
       y="682.00012"
       id="text972"><tspan
         sodipodi:role="line"
         x="1141.4875"
         y="682.00012"
         id="tspan970"
         style="font-size:24px;fill:#ffffff;fill-opacity:1">Copy to Clipboard</tspan></text>
  </g>
</svg>
