<?xml version="1.0" encoding="UTF-8" standalone="no"?>
<svg
   xmlns:dc="http://purl.org/dc/elements/1.1/"
   xmlns:cc="http://creativecommons.org/ns#"
   xmlns:rdf="http://www.w3.org/1999/02/22-rdf-syntax-ns#"
   xmlns:svg="http://www.w3.org/2000/svg"
   xmlns="http://www.w3.org/2000/svg"
   xmlns:sodipodi="http://sodipodi.sourceforge.net/DTD/sodipodi-0.dtd"
   xmlns:inkscape="http://www.inkscape.org/namespaces/inkscape"
   width="1920px"
   height="1080px"
   viewBox="0 0 1920 1080"
   version="1.1"
   id="SVGRoot"
   sodipodi:docname="Sign_Up_2_Mockup.svg"
   inkscape:version="1.0.1 (c497b03c, 2020-09-10)">
  <defs
     id="defs885">
    <inkscape:perspective
       sodipodi:type="inkscape:persp3d"
       inkscape:vp_x="0 : -88.500084 : 1"
       inkscape:vp_y="0 : 999.99991 : 0"
       inkscape:vp_z="210 : -88.500084 : 1"
       inkscape:persp3d-origin="105 : -137.99998 : 1"
       id="perspective1876" />
  </defs>
  <sodipodi:namedview
     id="base"
     pagecolor="#ffffff"
     bordercolor="#666666"
     borderopacity="1.0"
     inkscape:pageopacity="0.0"
     inkscape:pageshadow="2"
     inkscape:zoom="0.49497475"
     inkscape:cx="958.44979"
     inkscape:cy="240.77766"
     inkscape:document-units="px"
     inkscape:current-layer="layer1"
     inkscape:document-rotation="0"
     showgrid="false"
     inkscape:window-width="1550"
     inkscape:window-height="1174"
     inkscape:window-x="983"
     inkscape:window-y="23"
     inkscape:window-maximized="0"
     inkscape:snap-page="false" />
  <metadata
     id="metadata888">
    <rdf:RDF>
      <cc:Work
         rdf:about="">
        <dc:format>image/svg+xml</dc:format>
        <dc:type
           rdf:resource="http://purl.org/dc/dcmitype/StillImage" />
        <dc:title></dc:title>
      </cc:Work>
    </rdf:RDF>
  </metadata>
  <g
     inkscape:label="Layer 1"
     inkscape:groupmode="layer"
     id="layer1">
    <rect
       style="fill:#25cbea;fill-opacity:1;stroke-width:0;stroke-linecap:round;stroke-linejoin:round"
       id="rect1550"
       width="1920"
       height="81.857002"
       x="0"
       y="0" />
    <g
       inkscape:label="Layer 1"
       id="layer1-2"
       transform="matrix(1.8306346,0,0,1.8306346,-24.765743,-11.74416)"
       style="fill:#fffdfd;fill-opacity:1">
      <path
         id="rect887"
         style="fill:#fffdfd;fill-opacity:1;stroke:none;stroke-width:0.144273;stroke-opacity:1"
         d="m 41.754279,13.103355 v 31.827692 h 6.414863 V 33.353983 a 2.4531599,2.4531599 0 0 1 -0.0039,-0.1307 2.4531599,2.4531599 0 0 1 2.45323,-2.452997 2.4531599,2.4531599 0 0 1 2.452285,2.401887 h 0.01719 v 11.759114 h 6.337375 V 33.171933 h -0.0016 a 8.7670845,8.7670845 0 0 0 -8.766589,-8.676614 8.7670845,8.7670845 0 0 0 -0.02446,0 8.7670845,8.7670845 0 0 0 -2.464063,0.36055 V 13.103355 Z" />
      <path
         id="circle954"
         style="fill:#fffdfd;fill-opacity:1;stroke:none;stroke-width:0.172211;stroke-opacity:1"
         d="m 87.770982,23.289559 a 8.7670845,8.7670845 0 0 0 -8.737358,8.467017 h -0.0063 v 6.685684 h 0.0087 a 8.7670845,8.7670845 0 0 0 8.759718,8.410267 8.7670845,8.7670845 0 0 0 8.760649,-8.436167 h -6.368894 a 2.4145293,2.4145293 0 0 1 -2.391755,2.08372 2.4145293,2.4145293 0 0 1 -2.410598,-2.28061 v -0.26517 -5.763684 -0.27012 a 2.4145293,2.4145293 0 0 1 2.383748,-2.27826 2.4145293,2.4145293 0 0 1 0.0268,0 2.4145293,2.4145293 0 0 1 2.398345,2.13695 h 6.364174 a 8.7670845,8.7670845 0 0 0 -8.762519,-8.489627 8.7670845,8.7670845 0 0 0 -0.0245,0 z" />
      <path
         id="rect966"
         style="fill:#fffdfd;fill-opacity:1;stroke:none;stroke-width:0.144273;stroke-opacity:1"
         d="m 97.460905,13.103355 v 31.827692 h 6.414845 v -7.871194 l 5.79006,7.831404 h 7.56882 l -10.35576,-14.006761 8.37,-10.351034 h -7.67055 l -3.70257,4.578877 V 13.103355 Z" />
      <path
         id="path1028"
         style="fill:#fffdfd;fill-opacity:1;stroke:none;stroke-width:0.172211;stroke-opacity:1"
         d="m 69.443039,23.289559 a 8.7670845,8.7670845 0 0 0 -8.74233,8.767057 8.7670845,8.7670845 0 0 0 0.0254,0.665527 v 4.69568 a 8.7670845,8.7670845 0 0 0 -0.0254,0.667647 8.7670845,8.7670845 0 0 0 8.767058,8.767057 8.7670845,8.7670845 0 0 0 8.765151,-8.585947 h -6.357372 a 2.4145293,2.4145293 0 0 1 -2.407779,2.2335 2.4145293,2.4145293 0 0 1 -2.408019,-2.23892 h -0.0078 v -4.484677 h 11.178117 v -2.009067 a 8.7670845,8.7670845 0 0 0 -8.762321,-8.477857 8.7670845,8.7670845 0 0 0 -0.02446,0 z m -0.0023,6.352677 a 2.4145293,2.4145293 0 0 1 0.02681,0 2.4145293,2.4145293 0 0 1 2.396947,2.12448 h 0.03181 v 7.8e-4 h -4.844378 v -7.8e-4 h 0.01883 a 2.4145293,2.4145293 0 0 1 2.370092,-2.12448 z" />
      <path
         id="path1133"
         style="fill:#fffdfd;fill-opacity:1;stroke:none;stroke-width:0.172495;stroke-opacity:1"
         d="m 129.82006,12.341165 a 8.8636399,6.1680995 0 0 0 -8.86364,6.168087 8.8636399,6.1680995 0 0 0 4.1e-4,0.0419 h 0.0166 v 10.053264 a 3.0804648,2.1436581 0 0 0 -0.0238,0.2653 3.0804648,2.1436581 0 0 0 3.03666,2.14325 v 0.001 h 8.57366 v 9.806494 h 0.0307 a 2.7793054,1.9340849 0 0 1 -2.77052,1.78267 2.7793054,1.9340849 0 0 1 -2.75921,-1.70341 h 0.017 v -6.234107 h -6.12503 v 6.234137 h 0.01 a 8.8636414,6.1681005 0 0 0 8.85759,5.937357 8.8636414,6.1681005 0 0 0 8.86081,-6.018857 h -0.0513 V 29.293266 a 3.0804648,2.1436581 0 0 0 0.0606,-0.42326 3.0804648,2.1436581 0 0 0 -3.08029,-2.143527 3.0804648,2.1436581 0 0 0 -0.53592,0.0326 h -8.01717 v -8.257357 h -0.0162 a 2.7793054,1.9340849 0 0 1 2.7483,-1.92601 2.7793054,1.9340849 0 0 1 0.0311,0 2.7793054,1.9340849 0 0 1 2.77941,1.93388 2.7793054,1.9340849 0 0 1 -7.8e-4,0.0419 h 0.019 v 6.083217 h 6.04062 v -6.083217 h 0.025 a 8.8636399,6.1680995 0 0 0 4e-4,-0.0419 8.8636399,6.1680995 0 0 0 -8.86361,-6.168087 z" />
      <path
         id="circle1157"
         style="fill:#fffdfd;fill-opacity:1;stroke:none;stroke-width:0.172495;stroke-opacity:1"
         d="M 142.93731,13.283785 V 40.75284 h 0.005 a 8.8636414,6.1681005 0 0 0 8.86283,6.084347 8.8636414,6.1681005 0 0 0 8.86361,-6.168097 8.8636414,6.1681005 0 0 0 -4e-4,-0.0573 h -0.0537 V 13.316145 h -6.06968 V 40.82062 h 0.0307 a 2.7793054,1.9340849 0 0 1 -2.77051,1.78267 2.7793054,1.9340849 0 0 1 -2.77658,-1.85041 h 0.0352 V 13.283825 Z" />
      <path
         id="rect1167"
         style="fill:#fffdfd;fill-opacity:1;stroke:none;stroke-width:0.28033;stroke-opacity:1"
         d="m 164.42584,13.190755 0.0941,0.17032 v 32.475022 h 6.12058 V 24.442119 l 2.09808,3.798317 -0.042,0.0756 h 6.20984 0.0836 l -0.0416,-0.0756 2.12595,-3.849197 v 21.525238 h 6.06364 V 13.413065 l 0.12277,-0.22231 h -6.20984 l -5.20743,9.428214 -5.20785,-9.428214 z" />
      <path
         id="path1878"
         style="fill:#fffdfd;fill-opacity:1;stroke:none;stroke-width:0.282904;stroke-opacity:1"
         d="m 28.558463,10.036338 a 8.9489001,10.225126 0 0 0 -8.867675,10.076164 h 0.0072 V 31.225536 H 18.991089 V 46.596487 H 38.984184 V 31.225536 H 25.900744 V 20.112502 h 0.0016 a 2.7398914,3.1306346 0 0 1 2.729032,-2.98178 2.7398914,3.1306346 0 0 1 0.0078,0 2.7398914,3.1306346 0 0 1 2.731617,2.88607 v 4.649037 a 3.1129007,3.5118825 0 0 0 -0.02377,0.43543 3.1129007,3.5118825 0 0 0 3.112989,3.511737 3.1129007,3.5118825 0 0 0 3.112471,-3.511737 3.1129007,3.5118825 0 0 0 -10e-4,-0.0863 h 0.0041 v -4.902497 h 0.01137 a 8.9489001,10.225126 0 0 0 -8.947774,-10.076164 8.9489001,10.225126 0 0 0 -0.08062,0 z" />
    </g>
    <text
       xml:space="preserve"
       style="font-style:normal;font-weight:normal;font-size:24px;line-height:1.25;font-family:sans-serif;fill:#fffdfd;fill-opacity:1;stroke:none;"
       x="380.94556"
       y="49.680119"
       id="text1562"><tspan
         sodipodi:role="line"
         id="tspan1560"
         x="380.94556"
         y="49.680119"
         style="font-size:24px;fill:#fffdfd;fill-opacity:1;">Sign Up</tspan></text>
    <text
       xml:space="preserve"
       style="font-style:normal;font-weight:normal;font-size:24px;line-height:1.25;font-family:sans-serif;fill:#fffdfd;fill-opacity:1;stroke:none"
       x="573.20593"
       y="52.859249"
       id="text1566"><tspan
         sodipodi:role="line"
         id="tspan1564"
         x="573.20593"
         y="52.859249"
         style="font-size:24px;fill:#fffdfd;fill-opacity:1">About Us</tspan></text>
    <text
       xml:space="preserve"
       style="font-style:normal;font-weight:normal;font-size:24px;line-height:1.25;font-family:sans-serif;fill:#fffdfd;fill-opacity:1;stroke:none"
       x="773.03259"
       y="53.195694"
       id="text1570"><tspan
         sodipodi:role="line"
         id="tspan1568"
         x="773.03259"
         y="53.195694"
         style="font-size:24px;fill:#fffdfd;fill-opacity:1">Contact Us</tspan></text>
    <rect
       style="fill:#fffdfd;fill-opacity:1;stroke-width:0;stroke-linecap:round;stroke-linejoin:round"
       id="rect1572"
       width="131.31982"
       height="4.0406103"
       x="358.68536"
       y="59.598999" />
    <rect
       style="fill:none;fill-opacity:1;stroke:#000000;stroke-width:1.01472;stroke-linecap:round;stroke-linejoin:round;stroke-miterlimit:4;stroke-dasharray:none;stroke-opacity:0.5"
       id="rect1574"
       width="687.04449"
       height="37.447632"
       x="635.08325"
       y="261.36902"
       ry="3.002876" />
    <text
       xml:space="preserve"
       style="font-style:normal;font-weight:normal;font-size:24px;line-height:1.25;font-family:sans-serif;fill:#000000;fill-opacity:0.501961;stroke:none"
       x="644.01685"
       y="286.24081"
       id="text1578"><tspan
         sodipodi:role="line"
         id="tspan1576"
         x="644.01685"
         y="286.24081"
         style="font-size:24px;fill:#000000;fill-opacity:0.501961">First Name *</tspan></text>
    <text
       xml:space="preserve"
       style="font-style:normal;font-weight:normal;font-size:24px;line-height:1.25;font-family:sans-serif;fill:#000000;fill-opacity:0.501961;stroke:none"
       x="643.79205"
       y="341.41125"
       id="text1582"><tspan
         sodipodi:role="line"
         id="tspan1580"
         x="643.79205"
         y="341.41125"
         style="font-size:24px;fill:#000000;fill-opacity:0.501961">Last Name *</tspan></text>
    <text
       xml:space="preserve"
       style="font-style:normal;font-weight:normal;font-size:24px;line-height:1.25;font-family:sans-serif;fill:#000000;fill-opacity:0.501961;stroke:none"
       x="819.48749"
       y="430.00009"
       id="text1586"><tspan
         sodipodi:role="line"
         x="819.48749"
         y="430.00009"
         id="tspan1588"
         style="font-size:24px;fill:#000000;fill-opacity:0.501961">Birth Date *</tspan></text>
    <text
       xml:space="preserve"
       style="font-style:normal;font-weight:normal;font-size:24px;line-height:1.25;font-family:sans-serif;fill:#000000;fill-opacity:0.501961;stroke:none"
       x="645.42657"
       y="482.83261"
       id="text1594"><tspan
         sodipodi:role="line"
         id="tspan1592"
         x="645.42657"
         y="482.83261">City of Birth *</tspan></text>
    <rect
       style="fill:none;fill-opacity:1;stroke:#000000;stroke-width:1.01472;stroke-linecap:round;stroke-linejoin:round;stroke-miterlimit:4;stroke-dasharray:none;stroke-opacity:0.5"
       id="rect1596"
       width="687.04449"
       height="37.447632"
       x="635.08325"
       y="315.36902"
       ry="3.002876" />
    <rect
       style="fill:none;fill-opacity:1;stroke:#000000;stroke-width:0.878456;stroke-linecap:round;stroke-linejoin:round;stroke-miterlimit:4;stroke-dasharray:none;stroke-opacity:0.5"
       id="rect1598"
       width="514.9115"
       height="37.447632"
       x="807.21625"
       y="403.36902"
       ry="3.002876" />
    <rect
       style="fill:none;fill-opacity:1;stroke:#000000;stroke-width:0.805634;stroke-linecap:round;stroke-linejoin:round;stroke-miterlimit:4;stroke-dasharray:none;stroke-opacity:0.5"
       id="rect1600"
       width="430.67484"
       height="37.656719"
       x="634.9787"
       y="457.26447"
       ry="3.0196424" />
    <rect
       style="fill:#000000;fill-opacity:0.501961;stroke:#000000;stroke-width:0;stroke-linecap:round;stroke-linejoin:round;stroke-miterlimit:4;stroke-dasharray:none;stroke-opacity:0.5"
       id="rect1602"
       width="747.14288"
       height="1.9695431"
       x="611.42859"
       y="377"
       ry="0" />
    <text
       xml:space="preserve"
       style="font-style:normal;font-weight:normal;font-size:29.33330000000000126px;line-height:1.25;font-family:sans-serif;fill:#e89a40;fill-opacity:1;stroke:none;"
       x="894.57147"
       y="211.14285"
       id="text1606"><tspan
         sodipodi:role="line"
         id="tspan1604"
         x="894.57147"
         y="211.14285"
         style="font-style:normal;font-variant:normal;font-weight:bold;font-stretch:normal;font-size:29.33330000000000126px;font-family:sans-serif;-inkscape-font-specification:'sans-serif Bold';fill:#e89a40;fill-opacity:1;">Sign Up</tspan></text>
    <rect
       style="fill:#e89a40;fill-opacity:1;stroke:none;stroke-width:0.692211;stroke-linecap:round;stroke-linejoin:round;stroke-miterlimit:4;stroke-dasharray:none;stroke-opacity:0.5"
       id="rect1608"
       width="319.72018"
       height="37.447632"
       x="1008.4076"
       y="547.36902"
       ry="3.002876" />
    <rect
       style="fill:#000000;fill-opacity:0.501961;stroke:#000000;stroke-width:0;stroke-linecap:round;stroke-linejoin:round;stroke-miterlimit:4;stroke-dasharray:none;stroke-opacity:0.5"
       id="rect1610"
       width="747.14288"
       height="1.9695431"
       x="611.42859"
       y="515"
       ry="0" />
    <text
       xml:space="preserve"
       style="font-style:normal;font-weight:normal;font-size:24px;line-height:1.25;font-family:sans-serif;fill:#ffffff;fill-opacity:0;stroke:none"
       x="1077.7733"
       y="574.57153"
       id="text1614"><tspan
         sodipodi:role="line"
         x="1077.7733"
         y="574.57153"
         id="tspan1612"
         style="font-size:24px;fill:#ffffff;fill-opacity:1">Create Account</tspan></text>
    <text
       xml:space="preserve"
       style="font-style:normal;font-weight:normal;font-size:24px;line-height:1.25;font-family:sans-serif;fill:#000000;fill-opacity:0.501961;stroke:none"
       x="633.48749"
       y="430.00009"
       id="text1678"><tspan
         sodipodi:role="line"
         x="633.48749"
         y="430.00009"
         id="tspan1676"
         style="font-size:24px;fill:#000000;fill-opacity:0.501961">DD/MM/YYYY</tspan></text>
    <rect
       style="fill:none;fill-opacity:1;stroke:#000000;stroke-width:0.599187;stroke-linecap:round;stroke-linejoin:round;stroke-miterlimit:4;stroke-dasharray:none;stroke-opacity:0.5"
       id="rect1680"
       width="236.93199"
       height="37.863167"
       x="1084.8755"
       y="457.16125"
       ry="3.0361972" />
    <text
       xml:space="preserve"
       style="font-style:normal;font-weight:normal;font-size:24px;line-height:1.25;font-family:sans-serif;fill:#000000;fill-opacity:0.501961;stroke:none"
       x="1095.4265"
       y="482.83261"
       id="text1684"><tspan
         sodipodi:role="line"
         id="tspan1682"
         x="1095.4265"
         y="482.83261">State *</tspan></text>
    <path
       sodipodi:type="star"
       style="fill:#000000;fill-opacity:0.50196081;stroke:none;stroke-width:0;stroke-linecap:round;stroke-linejoin:round;stroke-miterlimit:4;stroke-dasharray:none;stroke-opacity:0.5"
       id="path1686"
       sodipodi:sides="3"
       sodipodi:cx="1301.0156"
       sodipodi:cy="473.78183"
       sodipodi:r1="9.1473207"
       sodipodi:r2="4.5736604"
       sodipodi:arg1="1.5707963"
       sodipodi:arg2="2.6179939"
       inkscape:flatsided="true"
       inkscape:rounded="0"
       inkscape:randomized="0"
       d="m 1301.0156,482.92915 -7.9218,-13.72098 15.8436,0 z"
       inkscape:transform-center-y="2.2868301" />
    <rect
       style="fill:#25cbea;fill-opacity:1;stroke:none;stroke-width:0.692211;stroke-linecap:round;stroke-linejoin:round;stroke-miterlimit:4;stroke-dasharray:none;stroke-opacity:0.5"
       id="rect1688"
       width="319.72018"
       height="37.447632"
       x="638.40759"
       y="547.36902"
       ry="3.002876" />
    <text
       xml:space="preserve"
       style="font-style:normal;font-weight:normal;font-size:24px;line-height:1.25;font-family:sans-serif;fill:#ffffff;fill-opacity:0;stroke:none"
       x="769.77332"
       y="574.57153"
       id="text1692"><tspan
         sodipodi:role="line"
         x="769.77332"
         y="574.57153"
         id="tspan1690"
         style="font-size:24px;fill:#ffffff;fill-opacity:1">Back</tspan></text>
  </g>
</svg>
